<svg width="80" height="80" viewBox="0 0 80 80" fill="none" xmlns="http://www.w3.org/2000/svg">
<rect width="80" height="80" rx="40" fill="#414141"/>
<path d="M32.7388 40.4626H47.2618V38.6166H32.7388V40.4626ZM32.7388 45.7606H47.2618V43.9146H32.7388V45.7606ZM32.7388 51.0781H41.2618V49.2321H32.7388V51.0781ZM29.3463 57.6936C28.487 57.6936 27.7607 57.3969 27.1673 56.8036C26.574 56.2103 26.2773 55.4841 26.2773 54.6251V25.3771C26.2773 24.5181 26.574 23.7919 27.1673 23.1986C27.7607 22.6053 28.4897 22.3086 29.3543 22.3086H45.0003L53.7233 31.0071V54.6166C53.7233 55.4813 53.4267 56.2103 52.8333 56.8036C52.24 57.3969 51.5137 57.6936 50.6543 57.6936H29.3463ZM44.0928 31.9396V24.1551H29.3543C29.0467 24.1551 28.7645 24.2833 28.5078 24.5396C28.2515 24.7959 28.1233 25.0779 28.1233 25.3856V54.6166C28.1233 54.9243 28.2515 55.2063 28.5078 55.4626C28.7645 55.7189 29.0467 55.8471 29.3543 55.8471H50.6463C50.954 55.8471 51.2362 55.7189 51.4928 55.4626C51.7492 55.2063 51.8773 54.9243 51.8773 54.6166V31.9396H44.0928Z" fill="#967450"/>
</svg>
