<svg width="130" height="130" viewBox="0 0 130 130" fill="none" xmlns="http://www.w3.org/2000/svg">
<rect width="130" height="130" rx="65" fill="#CFC4A6"/>
<path d="M91.325 51.175L73.825 33.675C73.4737 33.3233 72.9971 33.1254 72.5 33.125H42.5C41.3397 33.125 40.2269 33.5859 39.4064 34.4064C38.5859 35.2269 38.125 36.3397 38.125 37.5V92.5C38.125 93.6603 38.5859 94.7731 39.4064 95.5936C40.2269 96.4141 41.3397 96.875 42.5 96.875H87.5C88.6603 96.875 89.7731 96.4141 90.5936 95.5936C91.4141 94.7731 91.875 93.6603 91.875 92.5V52.5C91.8746 52.0029 91.6767 51.5263 91.325 51.175ZM74.375 39.525L85.475 50.625H74.375V39.525ZM87.5 93.125H42.5C42.3342 93.125 42.1753 93.0592 42.0581 92.9419C41.9408 92.8247 41.875 92.6658 41.875 92.5V37.5C41.875 37.3342 41.9408 37.1753 42.0581 37.0581C42.1753 36.9408 42.3342 36.875 42.5 36.875H70.625V52.5C70.625 52.9973 70.8225 53.4742 71.1742 53.8258C71.5258 54.1775 72.0027 54.375 72.5 54.375H88.125V92.5C88.125 92.6658 88.0592 92.8247 87.9419 92.9419C87.8247 93.0592 87.6658 93.125 87.5 93.125ZM76.875 67.5C76.875 67.9973 76.6775 68.4742 76.3258 68.8258C75.9742 69.1775 75.4973 69.375 75 69.375H55C54.5027 69.375 54.0258 69.1775 53.6742 68.8258C53.3225 68.4742 53.125 67.9973 53.125 67.5C53.125 67.0027 53.3225 66.5258 53.6742 66.1742C54.0258 65.8225 54.5027 65.625 55 65.625H75C75.4973 65.625 75.9742 65.8225 76.3258 66.1742C76.6775 66.5258 76.875 67.0027 76.875 67.5ZM76.875 77.5C76.875 77.9973 76.6775 78.4742 76.3258 78.8258C75.9742 79.1775 75.4973 79.375 75 79.375H55C54.5027 79.375 54.0258 79.1775 53.6742 78.8258C53.3225 78.4742 53.125 77.9973 53.125 77.5C53.125 77.0027 53.3225 76.5258 53.6742 76.1742C54.0258 75.8225 54.5027 75.625 55 75.625H75C75.4973 75.625 75.9742 75.8225 76.3258 76.1742C76.6775 76.5258 76.875 77.0027 76.875 77.5Z" fill="#636846"/>
</svg>
