<svg width="80" height="80" viewBox="0 0 80 80" fill="none" xmlns="http://www.w3.org/2000/svg">
<rect width="80" height="80" rx="40" fill="#414141"/>
<path d="M40.0003 38.8019C38.3877 38.8019 37.0102 38.2307 35.8678 37.0884C34.7255 35.946 34.1543 34.5685 34.1543 32.9559C34.1543 31.3429 34.7255 29.9652 35.8678 28.8229C37.0102 27.6805 38.3877 27.1094 40.0003 27.1094C41.613 27.1094 42.9905 27.6805 44.1328 28.8229C45.2752 29.9652 45.8463 31.3429 45.8463 32.9559C45.8463 34.5685 45.2752 35.946 44.1328 37.0884C42.9905 38.2307 41.613 38.8019 40.0003 38.8019ZM26.2773 52.8329V49.7249C26.2773 48.9172 26.5083 48.168 26.9703 47.4774C27.4323 46.7867 28.0668 46.2474 28.8738 45.8594C30.7488 44.9737 32.6133 44.3052 34.4673 43.8539C36.3213 43.4025 38.1658 43.1769 40.0008 43.1769C41.8358 43.1769 43.6817 43.4022 45.5383 43.8529C47.395 44.3035 49.2593 44.9719 51.1313 45.8579C51.9373 46.2459 52.5708 46.7854 53.0318 47.4764C53.4928 48.1674 53.7233 48.9169 53.7233 49.7249V52.8329H26.2773ZM28.1233 50.9864H51.8773V49.7299C51.8773 49.2765 51.7343 48.8557 51.4483 48.4674C51.1623 48.0787 50.765 47.7434 50.2563 47.4614C48.6107 46.6677 46.9275 46.0629 45.2068 45.6469C43.4862 45.2309 41.7498 45.0229 39.9978 45.0229C38.2342 45.0229 36.495 45.2309 34.7803 45.6469C33.0653 46.0629 31.3932 46.6677 29.7638 47.4614C29.2422 47.7434 28.8383 48.0799 28.5523 48.4709C28.2663 48.8619 28.1233 49.2799 28.1233 49.7249V50.9864ZM40.0003 36.9559C41.1003 36.9559 42.042 36.5642 42.8253 35.7809C43.6087 34.9975 44.0003 34.0559 44.0003 32.9559C44.0003 31.8559 43.6087 30.9142 42.8253 30.1309C42.042 29.3475 41.1003 28.9559 40.0003 28.9559C38.9003 28.9559 37.9587 29.3475 37.1753 30.1309C36.392 30.9142 36.0003 31.8559 36.0003 32.9559C36.0003 34.0559 36.392 34.9975 37.1753 35.7809C37.9587 36.5642 38.9003 36.9559 40.0003 36.9559Z" fill="#967450"/>
</svg>
