<svg width="130" height="130" viewBox="0 0 130 130" fill="none" xmlns="http://www.w3.org/2000/svg">
<rect width="130" height="130" rx="65" fill="#CFC4A6"/>
<path d="M60.1866 74.5094C63.6684 72.5359 66.3992 69.4654 67.9528 65.777C69.5064 62.0886 69.7955 57.9897 68.775 54.1197C67.7545 50.2497 65.4818 46.8264 62.3114 44.3836C59.141 41.9409 55.2513 40.6162 51.2491 40.6162C47.2468 40.6162 43.3571 41.9409 40.1867 44.3836C37.0164 46.8264 34.7437 50.2497 33.7232 54.1197C32.7027 57.9897 32.9918 62.0886 34.5454 65.777C36.099 69.4654 38.8297 72.5359 42.3116 74.5094C35.8584 76.5667 30.3164 80.7947 26.6272 86.4751C26.3553 86.8915 26.2601 87.3989 26.3623 87.8857C26.4646 88.3724 26.756 88.7985 27.1725 89.0704C27.589 89.3422 28.0964 89.4375 28.5831 89.3352C29.0698 89.233 29.496 88.9415 29.7678 88.5251C32.0947 84.9474 35.2784 82.0075 39.0297 79.9724C42.781 77.9373 46.9813 76.8713 51.2491 76.8713C55.5169 76.8713 59.7171 77.9373 63.4685 79.9724C67.2198 82.0075 70.4034 84.9474 72.7303 88.5251C73.0199 88.8961 73.4384 89.1448 73.9028 89.2215C74.3672 89.2983 74.8435 89.1976 75.237 88.9394C75.6306 88.6812 75.9127 88.2845 76.0272 87.8279C76.1417 87.3714 76.0804 86.8885 75.8553 86.4751C72.17 80.7976 66.634 76.5699 60.1866 74.5094ZM36.8741 58.7501C36.8741 55.9069 37.7171 53.1277 39.2967 50.7637C40.8762 48.3998 43.1213 46.5573 45.748 45.4693C48.3747 44.3813 51.265 44.0966 54.0535 44.6513C56.842 45.2059 59.4034 46.575 61.4137 48.5854C63.4241 50.5958 64.7932 53.1572 65.3479 55.9456C65.9025 58.7341 65.6178 61.6244 64.5298 64.2511C63.4418 66.8778 61.5993 69.1229 59.2354 70.7024C56.8714 72.282 54.0922 73.1251 51.2491 73.1251C47.4381 73.1201 43.7847 71.604 41.0899 68.9092C38.3951 66.2145 36.879 62.561 36.8741 58.7501ZM102.812 89.0626C102.395 89.3341 101.889 89.4294 101.402 89.3274C100.916 89.2255 100.49 88.9346 100.218 88.5188C97.8951 84.9408 94.7138 82.0009 90.964 79.9671C87.2141 77.9334 83.0149 76.8704 78.7491 76.8751C78.2518 76.8751 77.7749 76.6775 77.4232 76.3259C77.0716 75.9743 76.8741 75.4973 76.8741 75.0001C76.8741 74.5028 77.0716 74.0259 77.4232 73.6742C77.7749 73.3226 78.2518 73.1251 78.7491 73.1251C80.8659 73.1229 82.9561 72.6533 84.8704 71.7498C86.7847 70.8462 88.4759 69.531 89.823 67.8982C91.1701 66.2653 92.14 64.3551 92.6633 62.304C93.1867 60.2529 93.2506 58.1115 92.8504 56.0328C92.4503 53.9542 91.596 51.9895 90.3486 50.2793C89.1013 48.569 87.4916 47.1554 85.6345 46.1393C83.7775 45.1232 81.719 44.5298 79.606 44.4015C77.4931 44.2732 75.3779 44.6131 73.4116 45.3969C73.1826 45.4907 72.9373 45.5382 72.6898 45.5367C72.4423 45.5352 72.1976 45.4848 71.9698 45.3883C71.7419 45.2917 71.5354 45.1511 71.3622 44.9743C71.1889 44.7976 71.0524 44.5884 70.9604 44.3586C70.8684 44.1289 70.8228 43.8832 70.8263 43.6358C70.8297 43.3884 70.8821 43.1441 70.9804 42.917C71.0787 42.6899 71.2209 42.4845 71.399 42.3126C71.5771 42.1408 71.7874 42.0059 72.0178 41.9157C76.2829 40.2153 81.0344 40.197 85.3124 41.8644C89.5905 43.5319 93.0762 46.7609 95.0656 50.8991C97.0549 55.0372 97.3996 59.7762 96.0299 64.1587C94.6602 68.5412 91.6783 72.2405 87.6866 74.5094C94.1398 76.5667 99.6817 80.7947 103.371 86.4751C103.639 86.8926 103.731 87.3994 103.626 87.8844C103.521 88.3694 103.228 88.7931 102.812 89.0626Z" fill="#636846"/>
</svg>
