<svg width="430" height="645" viewBox="0 0 430 645" fill="none" xmlns="http://www.w3.org/2000/svg">
<path d="M0.350348 322.782C0.350348 287.844 -0.53955 252.905 0.517204 218.021C3.35375 125.107 47.5149 57.3788 132.111 18.0863C221.879 -23.5759 327.388 8.82803 388.457 93.8057C415.488 131.445 429.17 173.548 429.559 219.509C430.115 287.844 430.115 356.178 429.726 424.513C429.059 525.087 361.482 613.206 266.485 638.335C151.577 668.7 29.6614 592.099 5.68974 473.836C2.07453 456.146 1.01777 437.739 0.572823 419.609C-0.205838 387.37 0.350348 355.076 0.350348 322.782ZM417.267 322.948C417.267 322.948 417.434 322.948 417.546 322.948C417.546 288.395 417.546 253.897 417.546 219.343C417.546 179.224 406.255 142.522 384.508 108.63C336.899 34.4536 249.188 -2.41415 167.818 17.9761C78.1608 40.4604 12.4752 123.84 11.8078 217.029C11.3072 283.821 11.3628 350.612 11.8634 417.349C11.9746 434.323 13.4763 451.461 16.4241 468.214C34.5558 570.992 138.006 646.216 240.623 631.777C335.341 618.441 414.32 531.7 417.045 436.747C418.157 398.833 417.212 360.863 417.212 322.948H417.267Z" fill="#CFC4A6"/>
<path d="M214.537 353.003C197.629 353.003 185.004 340.493 184.726 323.52C184.503 307.042 197.574 293.871 214.37 293.706C231 293.541 244.071 306.546 244.071 323.299C244.071 340.108 231.334 352.948 214.537 353.003Z" fill="#CFC4A6"/>
<path d="M299.634 324.877C278.11 363.784 244.739 383.127 200.299 385.772C162.59 388.031 127.606 382.19 99.4629 354.801C81.8318 337.662 73.6003 315.453 69.2064 292.142C61.5867 251.582 61.3642 211.022 79.2178 172.722C125.993 72.3685 240.845 74.4076 300.079 117.227C334.841 142.357 346.521 208.156 290.457 234.609C270.212 244.142 248.576 251.196 227.108 257.699C188.23 269.437 156.583 291.756 128.273 319.752C123.49 324.491 124.881 327.853 127.606 332.537C146.572 365.051 189.954 380.977 228.832 369.239C253.86 361.689 273.271 349.014 285.785 336.339C287.565 334.411 295.296 327.191 299.69 324.877H299.634ZM120.209 319.145C149.019 285.364 183.948 266.296 220.6 249.598C242.236 239.734 262.314 227.224 276.719 207.55C298.744 177.406 295.185 145.002 267.042 120.589C223.604 82.8943 158.641 94.0814 131.499 145.608C102.689 200.276 105.08 257.809 120.209 319.201V319.145Z" fill="#CFC4A6"/>
<path d="M293.461 312.367C276.052 293.961 255.473 282.223 230.334 278.255C228.832 278.034 227.386 277.594 225.94 277.153C225.662 277.098 225.495 276.602 225.328 276.326C291.514 262.053 359.925 310.604 370.103 379.104C373.996 405.225 374.886 431.347 366.877 456.917C347.911 517.316 303.806 549.224 243.348 560.632C202.302 568.402 162.423 562.781 125.492 542.281C81.9987 518.088 60.1406 474.993 65.7581 425.836C69.5957 392.44 75.3801 374.364 88.5617 354.856C94.7354 360.697 101.521 365.988 106.693 372.601C108.807 375.301 108.195 380.977 107.361 384.945C100.186 419.168 101.187 452.839 114.424 485.574C132.5 530.267 167.707 551.429 214.705 551.759C260.201 552.09 295.018 530.928 312.315 488.77C333.729 436.748 336.343 386.323 308.923 335.127C307.198 331.931 299.857 319.09 293.405 312.312L293.461 312.367Z" fill="#CFC4A6"/>
</svg>
