<svg width="80" height="80" viewBox="0 0 80 80" fill="none" xmlns="http://www.w3.org/2000/svg">
<rect width="80" height="80" rx="40" fill="#414141"/>
<path d="M40.0122 39.374C40.8795 39.374 41.6219 39.0652 42.2392 38.4475C42.8565 37.8295 43.1652 37.0868 43.1652 36.2195C43.1652 35.3518 42.855 34.6095 42.2347 33.9925C41.614 33.3752 40.8682 33.0665 39.9972 33.0665C39.1259 33.0665 38.3847 33.3767 37.7737 33.997C37.163 34.6173 36.8577 35.3632 36.8577 36.2345C36.8577 37.1058 37.1665 37.8468 37.7842 38.4575C38.4019 39.0685 39.1445 39.374 40.0122 39.374ZM40.0017 55.2605C43.71 51.9908 46.6435 48.6792 48.8022 45.3255C50.9609 41.9718 52.0402 39.0727 52.0402 36.628C52.0402 33.006 50.8992 30.0158 48.6172 27.6575C46.3352 25.2992 43.4622 24.12 39.9982 24.12C36.5339 24.12 33.662 25.2992 31.3827 27.6575C29.103 30.0158 27.9632 33.006 27.9632 36.628C27.9632 39.0727 29.0425 41.9718 31.2012 45.3255C33.3599 48.6792 36.2934 51.9908 40.0017 55.2605ZM40.0017 57.73C35.3877 53.5977 31.92 49.7703 29.5987 46.248C27.2777 42.7257 26.1172 39.522 26.1172 36.637C26.1172 32.5023 27.4649 29.0812 30.1602 26.3735C32.8559 23.6662 36.1364 22.3125 40.0017 22.3125C43.867 22.3125 47.1475 23.6662 49.8432 26.3735C52.5385 29.0812 53.8862 32.5023 53.8862 36.637C53.8862 39.522 52.7257 42.7257 50.4047 46.248C48.0834 49.7703 44.6157 53.5977 40.0017 57.73Z" fill="#A77C66"/>
</svg>
