<svg width="130" height="130" viewBox="0 0 130 130" fill="none" xmlns="http://www.w3.org/2000/svg">
<rect width="130" height="130" rx="65" fill="#CFC4A6"/>
<path d="M65 45.625C62.6513 45.625 60.3554 46.3215 58.4026 47.6263C56.4498 48.9311 54.9277 50.7858 54.0289 52.9556C53.1301 55.1255 52.895 57.5132 53.3532 59.8167C53.8114 62.1202 54.9424 64.2361 56.6031 65.8969C58.2639 67.5576 60.3798 68.6886 62.6833 69.1468C64.9868 69.605 67.3745 69.3699 69.5444 68.4711C71.7142 67.5723 73.5689 66.0502 74.8737 64.0974C76.1785 62.1446 76.875 59.8487 76.875 57.5C76.875 54.3506 75.6239 51.3301 73.3969 49.1031C71.1699 46.8761 68.1494 45.625 65 45.625ZM65 65.625C63.393 65.625 61.8221 65.1485 60.486 64.2557C59.1498 63.3629 58.1084 62.094 57.4935 60.6093C56.8785 59.1247 56.7176 57.491 57.0311 55.9149C57.3446 54.3388 58.1185 52.8911 59.2548 51.7548C60.3911 50.6185 61.8388 49.8446 63.4149 49.5311C64.991 49.2176 66.6247 49.3785 68.1093 49.9935C69.594 50.6084 70.8629 51.6498 71.7557 52.986C72.6485 54.3221 73.125 55.893 73.125 57.5C73.125 59.6549 72.269 61.7215 70.7452 63.2452C69.2215 64.769 67.1549 65.625 65 65.625ZM65 30.625C57.8748 30.6333 51.0439 33.4674 46.0056 38.5056C40.9674 43.5439 38.1333 50.3748 38.125 57.5C38.125 67.1594 42.6063 77.4188 51.0844 87.1688C54.911 91.591 59.2177 95.5738 63.925 99.0437C64.2401 99.2643 64.6154 99.3825 65 99.3825C65.3846 99.3825 65.7599 99.2643 66.075 99.0437C70.7823 95.5738 75.089 91.591 78.9156 87.1688C87.3937 77.4188 91.875 67.1688 91.875 57.5C91.8667 50.3748 89.0326 43.5439 83.9944 38.5056C78.9561 33.4674 72.1252 30.6333 65 30.625ZM65 95.1594C60.3125 91.5406 41.875 76.1312 41.875 57.5C41.875 51.3669 44.3114 45.4849 48.6482 41.1482C52.9849 36.8114 58.8669 34.375 65 34.375C71.1331 34.375 77.0151 36.8114 81.3518 41.1482C85.6886 45.4849 88.125 51.3669 88.125 57.5C88.125 76.1312 69.6875 91.5406 65 95.1594Z" fill="#636846"/>
</svg>
