<svg width="80" height="80" viewBox="0 0 80 80" fill="none" xmlns="http://www.w3.org/2000/svg">
<rect width="80" height="80" rx="10" fill="#414141"/>
<path d="M35.1096 45.0711C35.1096 45.4859 34.9599 45.8385 34.6606 46.1289C34.3613 46.4193 33.9979 46.5644 33.5703 46.5644C33.1427 46.5644 32.7793 46.4193 32.48 46.1289C32.1807 45.8385 32.031 45.4859 32.031 45.0711V44.3556C32.031 43.7333 31.8921 43.2252 31.6141 42.8311C31.3576 42.4163 31.0262 42.0948 30.62 41.8667C30.2352 41.6385 29.8076 41.483 29.3373 41.4C28.8883 41.317 28.4821 41.2756 28.1187 41.2756H16.9909C16.3282 41.2756 15.6547 41.1926 14.9706 41.0267C14.3079 40.8607 13.6772 40.6119 13.0786 40.28V45.0711C13.0786 45.4859 12.9289 45.8385 12.6296 46.1289C12.3303 46.4193 11.9669 46.5644 11.5393 46.5644C11.1117 46.5644 10.7483 46.4193 10.449 46.1289C10.1497 45.8385 10 45.4859 10 45.0711V34.4933C10 34.0785 10.1497 33.7259 10.449 33.4356C10.7483 33.1452 11.1117 33 11.5393 33C11.9669 33 12.3303 33.1452 12.6296 33.4356C12.9289 33.7259 13.0786 34.0785 13.0786 34.4933V35.0222C13.0786 35.6859 13.2068 36.2356 13.4634 36.6711C13.7413 37.0859 14.0727 37.4178 14.4575 37.6667C14.8637 37.8948 15.2913 38.0607 15.7403 38.1644C16.1892 38.2474 16.6061 38.2889 16.9909 38.2889H28.1187C28.7814 38.2889 29.4442 38.3719 30.1069 38.5378C30.791 38.7037 31.4324 38.9526 32.031 39.2844V34.4933C32.031 34.0785 32.1807 33.7259 32.48 33.4356C32.7793 33.1452 33.1427 33 33.5703 33C33.9979 33 34.3613 33.1452 34.6606 33.4356C34.9599 33.7259 35.1096 34.0785 35.1096 34.4933V45.0711Z" fill="#967450"/>
<path d="M38.0467 45.0711C38.0467 44.5319 38.2391 44.0756 38.6239 43.7022C39.0088 43.3289 39.4791 43.1422 40.0349 43.1422C40.5908 43.1422 41.0611 43.3289 41.446 43.7022C41.8308 44.0756 42.0232 44.5319 42.0232 45.0711C42.0232 45.6104 41.8308 46.0667 41.446 46.44C41.0611 46.8133 40.5908 47 40.0349 47C39.4791 47 39.0088 46.8133 38.6239 46.44C38.2391 46.0667 38.0467 45.6104 38.0467 45.0711Z" fill="#967450"/>
<path d="M44.9225 45.0711C44.9225 44.8222 45.0294 44.5422 45.2431 44.2311C46.0128 43.1319 46.8786 42.2089 47.8407 41.4622C48.8241 40.6948 49.9251 40.083 51.1437 39.6267C52.3837 39.1496 53.7627 38.8074 55.2806 38.6C56.7985 38.3926 58.4981 38.2889 60.3795 38.2889H66.9214V36.6711C66.8787 36.4844 66.7718 36.3289 66.6007 36.2044C66.4297 36.0593 66.2052 35.9867 65.9273 35.9867H49.1234C48.8241 36.0281 48.5569 36.1526 48.3217 36.36C48.1079 36.5674 48.001 36.8267 48.001 37.1378C48.001 37.5526 47.8514 37.9052 47.5521 38.1956C47.2528 38.4859 46.8893 38.6311 46.4618 38.6311C46.0342 38.6311 45.6707 38.4859 45.3714 38.1956C45.0721 37.9052 44.9225 37.5526 44.9225 37.1378C44.9225 36.557 45.0401 36.0178 45.2752 35.52C45.5104 35.0222 45.8311 34.5867 46.2373 34.2133C46.6435 33.84 47.1138 33.5496 47.6483 33.3422C48.1828 33.1141 48.7493 33 49.3479 33H66.0876C66.558 33 67.0283 33.1037 67.4987 33.3111C67.969 33.4978 68.3859 33.7674 68.7493 34.12C69.1128 34.4726 69.4121 34.8978 69.6472 35.3956C69.8824 35.8933 70 36.4533 70 37.0756V45.0711C70 45.4859 69.8503 45.8385 69.551 46.1289C69.2517 46.4193 68.8883 46.5644 68.4607 46.5644C68.0545 46.5644 67.6911 46.4193 67.3704 46.1289C67.0711 45.8385 66.9214 45.4859 66.9214 45.0711V41.2756H60.3795C59.0753 41.2756 57.8461 41.317 56.6916 41.4C55.5585 41.4622 54.4789 41.6489 53.4527 41.96C52.4265 42.2711 51.4431 42.7274 50.5024 43.3289C49.5831 43.9304 48.6852 44.76 47.8086 45.8178C47.7659 45.88 47.6697 45.9837 47.52 46.1289C47.3704 46.2533 47.21 46.357 47.039 46.44C46.868 46.523 46.6755 46.5644 46.4618 46.5644C46.0342 46.5644 45.6707 46.4193 45.3714 46.1289C45.0721 45.8385 44.9225 45.4859 44.9225 45.0711Z" fill="#967450"/>
</svg>
