<svg width="100" height="100" viewBox="0 0 100 100" fill="none" xmlns="http://www.w3.org/2000/svg">
<path d="M85.9375 49.5C85.9375 49.9144 85.7729 50.3118 85.4799 50.6049C85.1868 50.8979 84.7894 51.0625 84.375 51.0625H15.625C15.2106 51.0625 14.8132 50.8979 14.5201 50.6049C14.2271 50.3118 14.0625 49.9144 14.0625 49.5C14.0625 49.0856 14.2271 48.6882 14.5201 48.3951C14.8132 48.1021 15.2106 47.9375 15.625 47.9375H84.375C84.7894 47.9375 85.1868 48.1021 85.4799 48.3951C85.7729 48.6882 85.9375 49.0856 85.9375 49.5ZM15.625 26.0625H84.375C84.7894 26.0625 85.1868 25.8979 85.4799 25.6049C85.7729 25.3118 85.9375 24.9144 85.9375 24.5C85.9375 24.0856 85.7729 23.6882 85.4799 23.3951C85.1868 23.1021 84.7894 22.9375 84.375 22.9375H15.625C15.2106 22.9375 14.8132 23.1021 14.5201 23.3951C14.2271 23.6882 14.0625 24.0856 14.0625 24.5C14.0625 24.9144 14.2271 25.3118 14.5201 25.6049C14.8132 25.8979 15.2106 26.0625 15.625 26.0625ZM84.375 72.9375H15.625C15.2106 72.9375 14.8132 73.1021 14.5201 73.3951C14.2271 73.6882 14.0625 74.0856 14.0625 74.5C14.0625 74.9144 14.2271 75.3118 14.5201 75.6049C14.8132 75.8979 15.2106 76.0625 15.625 76.0625H84.375C84.7894 76.0625 85.1868 75.8979 85.4799 75.6049C85.7729 75.3118 85.9375 74.9144 85.9375 74.5C85.9375 74.0856 85.7729 73.6882 85.4799 73.3951C85.1868 73.1021 84.7894 72.9375 84.375 72.9375Z" fill="#967450"/>
</svg>
