<svg width="36" height="36" viewBox="0 0 36 36" fill="none" xmlns="http://www.w3.org/2000/svg">
<path d="M14.625 5.90625H7.875C7.35286 5.90625 6.8521 6.11367 6.48288 6.48288C6.11367 6.8521 5.90625 7.35286 5.90625 7.875V14.625C5.90625 14.8835 5.95717 15.1395 6.05611 15.3784C6.15505 15.6173 6.30007 15.8343 6.48288 16.0171C6.6657 16.1999 6.88273 16.3449 7.12159 16.4439C7.36045 16.5428 7.61646 16.5938 7.875 16.5938H14.625C14.8835 16.5938 15.1395 16.5428 15.3784 16.4439C15.6173 16.3449 15.8343 16.1999 16.0171 16.0171C16.1999 15.8343 16.3449 15.6173 16.4439 15.3784C16.5428 15.1395 16.5938 14.8835 16.5938 14.625V7.875C16.5938 7.61646 16.5428 7.36045 16.4439 7.12159C16.3449 6.88273 16.1999 6.6657 16.0171 6.48288C15.8343 6.30007 15.6173 6.15505 15.3784 6.05611C15.1395 5.95717 14.8835 5.90625 14.625 5.90625ZM14.9062 14.625C14.9062 14.6996 14.8766 14.7711 14.8239 14.8239C14.7711 14.8766 14.6996 14.9062 14.625 14.9062H7.875C7.80041 14.9062 7.72887 14.8766 7.67613 14.8239C7.62338 14.7711 7.59375 14.6996 7.59375 14.625V7.875C7.59375 7.80041 7.62338 7.72887 7.67613 7.67613C7.72887 7.62338 7.80041 7.59375 7.875 7.59375H14.625C14.6996 7.59375 14.7711 7.62338 14.8239 7.67613C14.8766 7.72887 14.9062 7.80041 14.9062 7.875V14.625ZM28.125 5.90625H21.375C20.8529 5.90625 20.3521 6.11367 19.9829 6.48288C19.6137 6.8521 19.4062 7.35286 19.4062 7.875V14.625C19.4062 14.8835 19.4572 15.1395 19.5561 15.3784C19.6551 15.6173 19.8001 15.8343 19.9829 16.0171C20.1657 16.1999 20.3827 16.3449 20.6216 16.4439C20.8605 16.5428 21.1165 16.5938 21.375 16.5938H28.125C28.3835 16.5938 28.6395 16.5428 28.8784 16.4439C29.1173 16.3449 29.3343 16.1999 29.5171 16.0171C29.6999 15.8343 29.8449 15.6173 29.9439 15.3784C30.0428 15.1395 30.0938 14.8835 30.0938 14.625V7.875C30.0938 7.35286 29.8863 6.8521 29.5171 6.48288C29.1479 6.11367 28.6471 5.90625 28.125 5.90625ZM28.4062 14.625C28.4062 14.6996 28.3766 14.7711 28.3239 14.8239C28.2711 14.8766 28.1996 14.9062 28.125 14.9062H21.375C21.3004 14.9062 21.2289 14.8766 21.1761 14.8239C21.1234 14.7711 21.0938 14.6996 21.0938 14.625V7.875C21.0938 7.80041 21.1234 7.72887 21.1761 7.67613C21.2289 7.62338 21.3004 7.59375 21.375 7.59375H28.125C28.1996 7.59375 28.2711 7.62338 28.3239 7.67613C28.3766 7.72887 28.4062 7.80041 28.4062 7.875V14.625ZM14.625 19.4062H7.875C7.35286 19.4062 6.8521 19.6137 6.48288 19.9829C6.11367 20.3521 5.90625 20.8529 5.90625 21.375V28.125C5.90625 28.6471 6.11367 29.1479 6.48288 29.5171C6.8521 29.8863 7.35286 30.0938 7.875 30.0938H14.625C14.8835 30.0938 15.1395 30.0428 15.3784 29.9439C15.6173 29.8449 15.8343 29.6999 16.0171 29.5171C16.1999 29.3343 16.3449 29.1173 16.4439 28.8784C16.5428 28.6395 16.5938 28.3835 16.5938 28.125V21.375C16.5938 21.1165 16.5428 20.8605 16.4439 20.6216C16.3449 20.3827 16.1999 20.1657 16.0171 19.9829C15.8343 19.8001 15.6173 19.6551 15.3784 19.5561C15.1395 19.4572 14.8835 19.4062 14.625 19.4062ZM14.9062 28.125C14.9062 28.1996 14.8766 28.2711 14.8239 28.3239C14.7711 28.3766 14.6996 28.4062 14.625 28.4062H7.875C7.80041 28.4062 7.72887 28.3766 7.67613 28.3239C7.62338 28.2711 7.59375 28.1996 7.59375 28.125V21.375C7.59375 21.3004 7.62338 21.2289 7.67613 21.1761C7.72887 21.1234 7.80041 21.0938 7.875 21.0938H14.625C14.6996 21.0938 14.7711 21.1234 14.8239 21.1761C14.8766 21.2289 14.9062 21.3004 14.9062 21.375V28.125ZM28.125 19.4062H21.375C20.8529 19.4062 20.3521 19.6137 19.9829 19.9829C19.6137 20.3521 19.4062 20.8529 19.4062 21.375V28.125C19.4062 28.6471 19.6137 29.1479 19.9829 29.5171C20.3521 29.8863 20.8529 30.0938 21.375 30.0938H28.125C28.6471 30.0938 29.1479 29.8863 29.5171 29.5171C29.8863 29.1479 30.0938 28.6471 30.0938 28.125V21.375C30.0938 20.8529 29.8863 20.3521 29.5171 19.9829C29.1479 19.6137 28.6471 19.4062 28.125 19.4062ZM28.4062 28.125C28.4062 28.1996 28.3766 28.2711 28.3239 28.3239C28.2711 28.3766 28.1996 28.4062 28.125 28.4062H21.375C21.3004 28.4062 21.2289 28.3766 21.1761 28.3239C21.1234 28.2711 21.0938 28.1996 21.0938 28.125V21.375C21.0938 21.3004 21.1234 21.2289 21.1761 21.1761C21.2289 21.1234 21.3004 21.0938 21.375 21.0938H28.125C28.1996 21.0938 28.2711 21.1234 28.3239 21.1761C28.3766 21.2289 28.4062 21.3004 28.4062 21.375V28.125Z" fill="#967450"/>
</svg>
