<svg width="36" height="36" viewBox="0 0 36 36" fill="none" xmlns="http://www.w3.org/2000/svg">
<path d="M15.8346 22.2792C17.4015 21.3911 18.6303 20.0094 19.3294 18.3496C20.0285 16.6898 20.1586 14.8453 19.6994 13.1038C19.2402 11.3624 18.2175 9.82183 16.7908 8.7226C15.3642 7.62338 13.6138 7.02727 11.8128 7.02727C10.0117 7.02727 8.26137 7.62338 6.83471 8.7226C5.40805 9.82183 4.38533 11.3624 3.92611 13.1038C3.46689 14.8453 3.59698 16.6898 4.29611 18.3496C4.99523 20.0094 6.22406 21.3911 7.79089 22.2792C4.88695 23.205 2.39306 25.1076 0.732922 27.6637C0.61059 27.8512 0.567719 28.0795 0.613739 28.2985C0.659758 28.5175 0.790899 28.7093 0.978312 28.8316C1.16572 28.954 1.39406 28.9968 1.61308 28.9508C1.8321 28.9048 2.02387 28.7737 2.1462 28.5862C3.19331 26.9763 4.62594 25.6534 6.31404 24.7376C8.00214 23.8217 9.89225 23.3421 11.8128 23.3421C13.7333 23.3421 15.6234 23.8217 17.3115 24.7376C18.9996 25.6534 20.4322 26.9763 21.4793 28.5862C21.6096 28.7532 21.798 28.8651 22.0069 28.8997C22.2159 28.9342 22.4302 28.8889 22.6073 28.7727C22.7845 28.6565 22.9114 28.478 22.9629 28.2725C23.0145 28.0671 22.9869 27.8498 22.8856 27.6637C21.2272 25.1089 18.736 23.2064 15.8346 22.2792ZM5.34402 15.1875C5.34402 13.9081 5.7234 12.6574 6.4342 11.5937C7.14499 10.5299 8.15527 9.70076 9.33728 9.21115C10.5193 8.72155 11.8199 8.59344 13.0748 8.84304C14.3296 9.09264 15.4822 9.70873 16.3869 10.6134C17.2915 11.5181 17.9076 12.6707 18.1572 13.9255C18.4068 15.1803 18.2787 16.481 17.7891 17.663C17.2995 18.845 16.4704 19.8553 15.4066 20.5661C14.3428 21.2769 13.0922 21.6562 11.8128 21.6562C10.0978 21.654 8.45378 20.9718 7.24113 19.7591C6.02849 18.5465 5.34625 16.9024 5.34402 15.1875ZM35.0159 28.8281C34.8286 28.9503 34.6005 28.9932 34.3817 28.9473C34.1628 28.9014 33.9711 28.7706 33.8487 28.5834C32.8035 26.9733 31.3719 25.6504 29.6845 24.7352C27.997 23.82 26.1074 23.3417 24.1878 23.3437C23.964 23.3437 23.7494 23.2549 23.5911 23.0966C23.4329 22.9384 23.344 22.7238 23.344 22.5C23.344 22.2762 23.4329 22.0616 23.5911 21.9034C23.7494 21.7451 23.964 21.6562 24.1878 21.6562C25.1403 21.6553 26.0809 21.444 26.9424 21.0374C27.8038 20.6308 28.5648 20.0389 29.171 19.3042C29.7772 18.5694 30.2137 17.7098 30.4492 16.7868C30.6847 15.8638 30.7134 14.9002 30.5334 13.9648C30.3533 13.0294 29.9689 12.1453 29.4076 11.3756C28.8463 10.606 28.1219 9.96989 27.2862 9.51266C26.4506 9.05542 25.5242 8.7884 24.5734 8.73065C23.6226 8.6729 22.6707 8.82586 21.7859 9.17859C21.6828 9.22079 21.5725 9.24217 21.4611 9.2415C21.3497 9.24083 21.2396 9.21812 21.1371 9.17469C21.0345 9.13125 20.9416 9.06795 20.8637 8.98843C20.7857 8.90891 20.7243 8.81475 20.6829 8.71136C20.6415 8.60798 20.621 8.49743 20.6225 8.38609C20.624 8.27474 20.6476 8.1648 20.6918 8.0626C20.7361 7.96041 20.8001 7.86798 20.8802 7.79065C20.9604 7.71331 21.055 7.65261 21.1587 7.61203C23.078 6.84685 25.2161 6.83861 27.1413 7.58897C29.0664 8.33933 30.635 9.79236 31.5302 11.6545C32.4254 13.5167 32.5805 15.6493 31.9641 17.6214C31.3478 19.5935 30.0059 21.2582 28.2096 22.2792C31.1136 23.205 33.6075 25.1076 35.2676 27.6637C35.3883 27.8516 35.4295 28.0797 35.3823 28.2979C35.3352 28.5162 35.2034 28.7068 35.0159 28.8281Z" fill="#967450"/>
</svg>
