<svg width="36" height="36" viewBox="0 0 36 36" fill="none" xmlns="http://www.w3.org/2000/svg">
<path d="M29.8463 11.7787L21.9713 3.90373C21.8132 3.74546 21.5987 3.65643 21.375 3.65623H7.875C7.35286 3.65623 6.8521 3.86366 6.48288 4.23287C6.11367 4.60208 5.90625 5.10284 5.90625 5.62498V30.375C5.90625 30.8971 6.11367 31.3979 6.48288 31.7671C6.8521 32.1363 7.35286 32.3437 7.875 32.3437H28.125C28.6471 32.3437 29.1479 32.1363 29.5171 31.7671C29.8863 31.3979 30.0938 30.8971 30.0938 30.375V12.375C30.0936 12.1513 30.0045 11.9368 29.8463 11.7787ZM22.2188 6.53623L27.2138 11.5312H22.2188V6.53623ZM28.125 30.6562H7.875C7.80041 30.6562 7.72887 30.6266 7.67613 30.5739C7.62338 30.5211 7.59375 30.4496 7.59375 30.375V5.62498C7.59375 5.55039 7.62338 5.47886 7.67613 5.42611C7.72887 5.37337 7.80041 5.34373 7.875 5.34373H20.5313V12.375C20.5313 12.5988 20.6201 12.8134 20.7784 12.9716C20.9366 13.1298 21.1512 13.2187 21.375 13.2187H28.4063V30.375C28.4063 30.4496 28.3766 30.5211 28.3239 30.5739C28.2711 30.6266 28.1996 30.6562 28.125 30.6562ZM23.3438 19.125C23.3438 19.3488 23.2549 19.5634 23.0966 19.7216C22.9384 19.8798 22.7238 19.9687 22.5 19.9687H13.5C13.2762 19.9687 13.0616 19.8798 12.9034 19.7216C12.7451 19.5634 12.6563 19.3488 12.6563 19.125C12.6563 18.9012 12.7451 18.6866 12.9034 18.5284C13.0616 18.3701 13.2762 18.2812 13.5 18.2812H22.5C22.7238 18.2812 22.9384 18.3701 23.0966 18.5284C23.2549 18.6866 23.3438 18.9012 23.3438 19.125ZM23.3438 23.625C23.3438 23.8488 23.2549 24.0634 23.0966 24.2216C22.9384 24.3798 22.7238 24.4687 22.5 24.4687H13.5C13.2762 24.4687 13.0616 24.3798 12.9034 24.2216C12.7451 24.0634 12.6563 23.8488 12.6563 23.625C12.6563 23.4012 12.7451 23.1866 12.9034 23.0284C13.0616 22.8701 13.2762 22.7812 13.5 22.7812H22.5C22.7238 22.7812 22.9384 22.8701 23.0966 23.0284C23.2549 23.1866 23.3438 23.4012 23.3438 23.625Z" fill="#967450"/>
</svg>
