<svg width="80" height="80" viewBox="0 0 80 80" fill="none" xmlns="http://www.w3.org/2000/svg">
<rect width="80" height="80" rx="40" fill="#414141"/>
<path d="M54.0571 38.8301C53.8058 35.1158 52.3714 31.9499 49.7541 29.3326C47.1368 26.7153 43.9711 25.2811 40.2571 25.0301V23.1836C42.3698 23.2899 44.3531 23.7673 46.2071 24.6156C48.0608 25.4636 49.6863 26.5894 51.0836 27.9931C52.4813 29.3971 53.6041 31.0223 54.4521 32.8686C55.3001 34.7149 55.7838 36.7021 55.9031 38.8301H54.0571ZM46.1186 38.8301C45.8673 37.3121 45.2069 36.0088 44.1376 34.9201C43.0683 33.8318 41.7748 33.1811 40.2571 32.9681V31.1221C42.2824 31.3351 44.0106 32.1633 45.4416 33.6066C46.8723 35.0503 47.7133 36.7914 47.9646 38.8301H46.1186ZM53.5856 55.6916C50.3166 55.6916 46.9474 54.8586 43.4781 53.1926C40.0088 51.5263 36.7741 49.1881 33.7741 46.1781C30.7831 43.1844 28.4578 39.9594 26.7981 36.5031C25.1384 33.0464 24.3086 29.6804 24.3086 26.4051C24.3086 25.8224 24.5058 25.3271 24.9001 24.9191C25.2941 24.5108 25.7868 24.3066 26.3781 24.3066H31.1086C31.6523 24.3066 32.1206 24.4686 32.5136 24.7926C32.9066 25.1163 33.1768 25.5543 33.3241 26.1066L34.3166 30.7531C34.4089 31.2544 34.3878 31.7114 34.2531 32.1241C34.1184 32.5371 33.8994 32.8781 33.5961 33.1471L29.2991 37.1836C30.1234 38.6733 31.0258 40.0551 32.0061 41.3291C32.9864 42.6031 34.0303 43.7976 35.1376 44.9126C36.2786 46.0663 37.5109 47.1393 38.8346 48.1316C40.1583 49.1239 41.6266 50.0721 43.2396 50.9761L47.5491 46.6221C47.8568 46.2874 48.1831 46.0714 48.5281 45.9741C48.8728 45.8768 49.2791 45.8594 49.7471 45.9221L53.8571 46.7506C54.4044 46.8689 54.8473 47.1376 55.1856 47.5566C55.5243 47.9759 55.6936 48.4568 55.6936 48.9991V53.6221C55.6936 54.2134 55.4901 54.7061 55.0831 55.1001C54.6761 55.4944 54.1769 55.6916 53.5856 55.6916ZM28.4221 35.4606L32.2606 31.9301C32.3759 31.8274 32.4529 31.6863 32.4916 31.5066C32.5299 31.3273 32.5299 31.1606 32.4916 31.0066L31.5781 26.7681C31.5268 26.5631 31.4369 26.4093 31.3086 26.3066C31.1806 26.2043 31.0139 26.1531 30.8086 26.1531H26.7301C26.5634 26.1531 26.4319 26.2043 26.3356 26.3066C26.2396 26.4093 26.1916 26.5376 26.1916 26.6916C26.2096 28.0376 26.4153 29.4593 26.8086 30.9566C27.2023 32.4543 27.7401 33.9556 28.4221 35.4606ZM45.0146 51.8221C46.3363 52.4914 47.7641 52.9863 49.2981 53.3066C50.8318 53.6273 52.1686 53.7991 53.3086 53.8221C53.4626 53.8221 53.5909 53.7708 53.6936 53.6681C53.7959 53.5658 53.8471 53.4376 53.8471 53.2836V49.2681C53.8471 49.0631 53.7959 48.8964 53.6936 48.7681C53.5909 48.6401 53.4371 48.5504 53.2321 48.4991L49.5936 47.7166C49.4396 47.6779 49.3049 47.6779 49.1896 47.7166C49.0743 47.7549 48.9524 47.8318 48.8241 47.9471L45.0146 51.8221Z" fill="#967450"/>
</svg>
