<svg width="130" height="130" viewBox="0 0 130 130" fill="none" xmlns="http://www.w3.org/2000/svg">
<rect width="130" height="130" rx="65" fill="#CFC4A6"/>
<path d="M94.2469 75.0937L79.4844 68.4781C78.8155 68.1915 78.0857 68.0762 77.3611 68.1428C76.6365 68.2094 75.9399 68.4556 75.3344 68.8593C75.273 68.8988 75.2145 68.9426 75.1594 68.9906L67.4438 75.5531C67.3637 75.5967 67.2746 75.6211 67.1835 75.6244C67.0924 75.6276 67.0017 75.6096 66.9188 75.5718C61.9594 73.1781 56.8219 68.0718 54.4188 63.1812C54.3788 63.0995 54.358 63.0097 54.358 62.9187C54.358 62.8277 54.3788 62.7379 54.4188 62.6562L61.0032 54.8437C61.0504 54.7859 61.0942 54.7254 61.1344 54.6624C61.5325 54.0546 61.773 53.3573 61.8341 52.6333C61.8952 51.9093 61.775 51.1815 61.4844 50.5156L54.9157 35.7781C54.5426 34.9081 53.8975 34.1826 53.0771 33.7104C52.2567 33.2382 51.3053 33.0448 50.3657 33.1593C46.282 33.6962 42.5335 35.7016 39.8207 38.8009C37.1079 41.9001 35.6165 45.8811 35.625 49.9999C35.625 74.4687 55.5313 94.3749 80 94.3749C84.1187 94.3828 88.0993 92.8911 91.1984 90.1785C94.2975 87.4658 96.3032 83.7177 96.8407 79.6343C96.9549 78.6991 96.7642 77.7519 96.2968 76.9338C95.8295 76.1157 95.1105 75.4703 94.2469 75.0937ZM80 90.6249C57.6 90.6249 39.375 72.3999 39.375 49.9999C39.3646 46.7935 40.5219 43.6929 42.6308 41.2775C44.7397 38.8621 47.6558 37.2971 50.8344 36.8749H50.9063C51.0322 36.8773 51.1545 36.9176 51.2571 36.9907C51.3597 37.0637 51.4379 37.1661 51.4813 37.2843L58.075 52.0062C58.1126 52.088 58.1321 52.177 58.1321 52.2671C58.1321 52.3572 58.1126 52.4462 58.075 52.5281L51.4782 60.3593C51.4289 60.4152 51.384 60.4748 51.3438 60.5374C50.931 61.1676 50.6879 61.8937 50.6381 62.6454C50.5883 63.3971 50.7334 64.1489 51.0594 64.8281C53.8313 70.5031 59.55 76.1781 65.2875 78.9499C65.9706 79.2741 66.7261 79.4158 67.4803 79.361C68.2345 79.3062 68.9616 79.0569 69.5907 78.6374C69.65 78.5968 69.7094 78.5531 69.7657 78.5062L77.4782 71.9437C77.5543 71.9028 77.6384 71.8788 77.7247 71.8734C77.811 71.868 77.8975 71.8813 77.9782 71.9124L92.7438 78.5281C92.8644 78.5794 92.9658 78.6674 93.0337 78.7796C93.1015 78.8917 93.1324 79.0224 93.1219 79.1531C92.702 82.3331 91.1385 85.2514 88.7236 87.3627C86.3087 89.4739 83.2077 90.6336 80 90.6249Z" fill="#636846"/>
</svg>
